<svg width="208" height="83" viewBox="0 0 208 83" fill="none" xmlns="http://www.w3.org/2000/svg">
<path d="M78.7914 23.2901C74.7855 15.0866 68.1865 8.43301 60.0163 4.35977C51.8461 0.286521 42.5608 -0.979027 33.5986 0.759144C24.6363 2.49731 16.4973 7.1422 10.4422 13.9744C4.38703 20.8065 0.753694 29.4446 0.104925 38.5508C-0.543844 47.657 1.82816 56.723 6.85354 64.3445C11.8789 71.9661 19.2772 77.718 27.9025 80.7092C36.5278 83.7004 45.8988 83.764 54.5639 80.8902C63.229 78.0164 70.7047 72.3655 75.8331 64.8128L41.5 41.5L78.7914 23.2901Z" fill="#8F5F5F"/>
<path d="M44.874 26.3171L46.9698 32.7672H53.7518L48.265 36.7536L50.3608 43.2037L44.874 39.2173L39.3872 43.2037L41.483 36.7536L35.9962 32.7672H42.7782L44.874 26.3171Z" fill="#8F5F5F"/>
<path d="M50.4623 22.5108L51.7531 29.1689L58.4842 29.9988L52.5508 33.2839L53.8415 39.942L48.8838 35.3141L42.9504 38.5991L45.8197 32.4539L40.862 27.8261L47.593 28.656L50.4623 22.5108Z" fill="#8F5F5F"/>
<path d="M55.4109 21.6111L56.7016 28.2692L63.4327 29.0991L57.4993 32.3841L58.7901 39.0422L53.8323 34.4144L47.8989 37.6994L50.7683 31.5542L45.8105 26.9264L52.5416 27.7563L55.4109 21.6111Z" fill="#8F5F5F"/>
<path d="M67.3304 16.7377L67.8883 23.4968L74.4889 25.0549L68.2331 27.6741L68.791 34.4332L64.3667 29.2929L58.1109 31.9121L61.6324 26.116L57.2082 20.9758L63.8088 22.5338L67.3304 16.7377Z" fill="#8F5F5F"/>
<path d="M70.2913 19.794L73.2641 20.7968L72.8781 23.1341L73.422 24.9854L73.6775 31.7626L69.4872 26.4299L67.6872 26.4299L71.464 20.7968L70.5722 22.6364L70.5722 23.1341L70.2913 19.794Z" fill="#8F5F5F"/>
<path d="M42.4056 44.9356L48.0541 48.6894L53.3696 44.4773L51.5451 51.0093L57.1935 54.7631L50.4174 55.0463L48.5928 61.5783L46.2295 55.2214L39.4534 55.5046L44.7689 51.2926L42.4056 44.9356Z" fill="#8F5F5F"/>
<path d="M46.2295 48.0847L51.8779 51.8384L57.1935 47.6264L55.3689 54.1584L61.0174 57.9121L54.2413 58.1954L52.4167 64.7274L50.0534 58.3704L43.2772 58.6537L48.5928 54.4416L46.2295 48.0847Z" fill="#8F5F5F"/>
<path d="M51.178 50.109L56.8265 53.8628L62.142 49.6508L60.3175 56.1828L65.9659 59.9365L59.1898 60.2198L57.3652 66.7518L55.0019 60.3948L48.2258 60.6781L53.5413 56.466L51.178 50.109Z" fill="#8F5F5F"/>
<path d="M54.7769 53.708L60.4254 57.4617L65.7409 53.2497L63.9163 59.7817L69.5648 63.5355L62.7887 63.8187L60.9641 70.3507L58.6008 63.9938L51.8247 64.277L57.1402 60.0649L54.7769 53.708Z" fill="#8F5F5F"/>
<path d="M59.5005 56.6321L65.1489 60.3858L70.4645 56.1738L68.6399 62.7058L74.2884 66.4596L67.5123 66.7428L65.6877 73.2748L63.3244 66.9179L56.5482 67.2011L61.8638 62.989L59.5005 56.6321Z" fill="#8F5F5F"/>
<path d="M62.7413 60.847L68.3898 64.6007L73.7053 60.3887L71.8808 66.9207L71.8808 68.7705L70.7531 70.9577L67.3465 72.3694L66.5652 71.1328L59.7891 71.416L65.1046 67.2039L62.7413 60.847Z" fill="#8F5F5F"/>
<path d="M89.3821 38V14.7273H98.7003C100.412 14.7273 101.84 14.9811 102.984 15.4886C104.128 15.9962 104.988 16.7008 105.564 17.6023C106.14 18.4962 106.428 19.5265 106.428 20.6932C106.428 21.6023 106.246 22.4015 105.882 23.0909C105.518 23.7727 105.018 24.3333 104.382 24.7727C103.753 25.2045 103.034 25.5114 102.223 25.6932V25.9205C103.109 25.9583 103.939 26.2083 104.712 26.6705C105.492 27.1326 106.125 27.7803 106.609 28.6136C107.094 29.4394 107.337 30.4242 107.337 31.5682C107.337 32.803 107.03 33.9053 106.416 34.875C105.81 35.8371 104.912 36.5985 103.723 37.1591C102.534 37.7197 101.068 38 99.3253 38H89.3821ZM94.3026 33.9773H98.3139C99.6851 33.9773 100.685 33.7159 101.314 33.1932C101.943 32.6629 102.257 31.9583 102.257 31.0795C102.257 30.4356 102.102 29.8674 101.791 29.375C101.481 28.8826 101.037 28.4962 100.462 28.2159C99.8935 27.9356 99.2154 27.7955 98.4276 27.7955H94.3026V33.9773ZM94.3026 24.4659H97.9503C98.6245 24.4659 99.223 24.3485 99.7457 24.1136C100.276 23.8712 100.693 23.5303 100.996 23.0909C101.306 22.6515 101.462 22.125 101.462 21.5114C101.462 20.6705 101.162 19.9924 100.564 19.4773C99.973 18.9621 99.1321 18.7045 98.0412 18.7045H94.3026V24.4659ZM131.925 26.3636C131.925 28.9015 131.444 31.0606 130.482 32.8409C129.527 34.6212 128.224 35.9811 126.572 36.9205C124.929 37.8523 123.08 38.3182 121.027 38.3182C118.959 38.3182 117.103 37.8485 115.459 36.9091C113.815 35.9697 112.516 34.6098 111.561 32.8295C110.607 31.0492 110.129 28.8939 110.129 26.3636C110.129 23.8258 110.607 21.6667 111.561 19.8864C112.516 18.1061 113.815 16.75 115.459 15.8182C117.103 14.8788 118.959 14.4091 121.027 14.4091C123.08 14.4091 124.929 14.8788 126.572 15.8182C128.224 16.75 129.527 18.1061 130.482 19.8864C131.444 21.6667 131.925 23.8258 131.925 26.3636ZM126.936 26.3636C126.936 24.7197 126.69 23.3333 126.197 22.2045C125.713 21.0758 125.027 20.2197 124.141 19.6364C123.254 19.053 122.216 18.7614 121.027 18.7614C119.838 18.7614 118.8 19.053 117.913 19.6364C117.027 20.2197 116.338 21.0758 115.845 22.2045C115.36 23.3333 115.118 24.7197 115.118 26.3636C115.118 28.0076 115.36 29.3939 115.845 30.5227C116.338 31.6515 117.027 32.5076 117.913 33.0909C118.8 33.6742 119.838 33.9659 121.027 33.9659C122.216 33.9659 123.254 33.6742 124.141 33.0909C125.027 32.5076 125.713 31.6515 126.197 30.5227C126.69 29.3939 126.936 28.0076 126.936 26.3636ZM156.956 26.3636C156.956 28.9015 156.475 31.0606 155.513 32.8409C154.558 34.6212 153.255 35.9811 151.604 36.9205C149.96 37.8523 148.111 38.3182 146.058 38.3182C143.99 38.3182 142.134 37.8485 140.49 36.9091C138.846 35.9697 137.547 34.6098 136.592 32.8295C135.638 31.0492 135.161 28.8939 135.161 26.3636C135.161 23.8258 135.638 21.6667 136.592 19.8864C137.547 18.1061 138.846 16.75 140.49 15.8182C142.134 14.8788 143.99 14.4091 146.058 14.4091C148.111 14.4091 149.96 14.8788 151.604 15.8182C153.255 16.75 154.558 18.1061 155.513 19.8864C156.475 21.6667 156.956 23.8258 156.956 26.3636ZM151.967 26.3636C151.967 24.7197 151.721 23.3333 151.229 22.2045C150.744 21.0758 150.058 20.2197 149.172 19.6364C148.286 19.053 147.248 18.7614 146.058 18.7614C144.869 18.7614 143.831 19.053 142.945 19.6364C142.058 20.2197 141.369 21.0758 140.876 22.2045C140.392 23.3333 140.149 24.7197 140.149 26.3636C140.149 28.0076 140.392 29.3939 140.876 30.5227C141.369 31.6515 142.058 32.5076 142.945 33.0909C143.831 33.6742 144.869 33.9659 146.058 33.9659C147.248 33.9659 148.286 33.6742 149.172 33.0909C150.058 32.5076 150.744 31.6515 151.229 30.5227C151.721 29.3939 151.967 28.0076 151.967 26.3636ZM160.601 38V14.7273H165.521V24.9886H165.828L174.203 14.7273H180.101L171.464 25.1477L180.203 38H174.317L167.942 28.4318L165.521 31.3864V38H160.601Z" fill="#8F5F5F"/>
<path d="M89.6165 69V45.7273H94.5369V55.3295H104.526V45.7273H109.435V69H104.526V59.3864H94.5369V69H89.6165ZM134.878 57.3636C134.878 59.9015 134.397 62.0606 133.435 63.8409C132.48 65.6212 131.177 66.9811 129.526 67.9205C127.882 68.8523 126.033 69.3182 123.98 69.3182C121.912 69.3182 120.056 68.8485 118.412 67.9091C116.768 66.9697 115.469 65.6098 114.514 63.8295C113.56 62.0492 113.082 59.8939 113.082 57.3636C113.082 54.8258 113.56 52.6667 114.514 50.8864C115.469 49.1061 116.768 47.75 118.412 46.8182C120.056 45.8788 121.912 45.4091 123.98 45.4091C126.033 45.4091 127.882 45.8788 129.526 46.8182C131.177 47.75 132.48 49.1061 133.435 50.8864C134.397 52.6667 134.878 54.8258 134.878 57.3636ZM129.889 57.3636C129.889 55.7197 129.643 54.3333 129.151 53.2045C128.666 52.0758 127.98 51.2197 127.094 50.6364C126.207 50.053 125.17 49.7614 123.98 49.7614C122.791 49.7614 121.753 50.053 120.866 50.6364C119.98 51.2197 119.291 52.0758 118.798 53.2045C118.313 54.3333 118.071 55.7197 118.071 57.3636C118.071 59.0076 118.313 60.3939 118.798 61.5227C119.291 62.6515 119.98 63.5076 120.866 64.0909C121.753 64.6742 122.791 64.9659 123.98 64.9659C125.17 64.9659 126.207 64.6742 127.094 64.0909C127.98 63.5076 128.666 62.6515 129.151 61.5227C129.643 60.3939 129.889 59.0076 129.889 57.3636ZM152.898 45.7273H157.818V60.8409C157.818 62.5379 157.413 64.0227 156.602 65.2955C155.799 66.5682 154.674 67.5606 153.227 68.2727C151.78 68.9773 150.095 69.3295 148.17 69.3295C146.239 69.3295 144.549 68.9773 143.102 68.2727C141.655 67.5606 140.53 66.5682 139.727 65.2955C138.924 64.0227 138.523 62.5379 138.523 60.8409V45.7273H143.443V60.4205C143.443 61.3068 143.636 62.0947 144.023 62.7841C144.417 63.4735 144.97 64.0152 145.682 64.4091C146.394 64.803 147.223 65 148.17 65C149.125 65 149.955 64.803 150.659 64.4091C151.371 64.0152 151.92 63.4735 152.307 62.7841C152.701 62.0947 152.898 61.3068 152.898 60.4205V45.7273ZM174.491 52.4205C174.401 51.5038 174.01 50.7917 173.321 50.2841C172.632 49.7765 171.696 49.5227 170.514 49.5227C169.711 49.5227 169.033 49.6364 168.48 49.8636C167.927 50.0833 167.503 50.3902 167.207 50.7841C166.92 51.178 166.776 51.625 166.776 52.125C166.76 52.5417 166.848 52.9053 167.037 53.2159C167.234 53.5265 167.503 53.7955 167.844 54.0227C168.185 54.2424 168.579 54.4356 169.026 54.6023C169.473 54.7614 169.95 54.8977 170.457 55.0114L172.548 55.5114C173.563 55.7386 174.495 56.0417 175.344 56.4205C176.192 56.7992 176.927 57.2652 177.548 57.8182C178.17 58.3712 178.651 59.0227 178.991 59.7727C179.34 60.5227 179.518 61.3826 179.526 62.3523C179.518 63.7765 179.154 65.0114 178.435 66.0568C177.723 67.0947 176.692 67.9015 175.344 68.4773C174.003 69.0455 172.385 69.3295 170.491 69.3295C168.613 69.3295 166.976 69.0417 165.582 68.4659C164.196 67.8902 163.113 67.0379 162.332 65.9091C161.56 64.7727 161.154 63.3674 161.116 61.6932H165.878C165.931 62.4735 166.154 63.125 166.548 63.6477C166.95 64.1629 167.484 64.553 168.151 64.8182C168.825 65.0758 169.586 65.2045 170.435 65.2045C171.268 65.2045 171.991 65.0833 172.605 64.8409C173.226 64.5985 173.707 64.2614 174.048 63.8295C174.389 63.3977 174.56 62.9015 174.56 62.3409C174.56 61.8182 174.404 61.3788 174.094 61.0227C173.791 60.6667 173.344 60.3636 172.753 60.1136C172.17 59.8636 171.454 59.6364 170.605 59.4318L168.071 58.7955C166.109 58.3182 164.56 57.572 163.423 56.5568C162.287 55.5417 161.723 54.1742 161.73 52.4545C161.723 51.0455 162.098 49.8144 162.855 48.7614C163.62 47.7083 164.67 46.8864 166.003 46.2955C167.336 45.7045 168.851 45.4091 170.548 45.4091C172.276 45.4091 173.783 45.7045 175.071 46.2955C176.366 46.8864 177.374 47.7083 178.094 48.7614C178.813 49.8144 179.185 51.0341 179.207 52.4205H174.491ZM182.835 69V45.7273H198.517V49.7841H187.756V55.3295H197.71V59.3864H187.756V64.9432H198.562V69H182.835Z" fill="#8F5F5F"/>
</svg>
