<svg width="183" height="183" viewBox="0 0 183 183" fill="none" xmlns="http://www.w3.org/2000/svg">
<circle cx="91.5" cy="91.5" r="91.5" fill="#8F5F5F"/>
<path d="M91.5 91.5C96.5557 91.5 101.404 89.4916 104.979 85.9167C108.554 82.3418 110.562 77.4932 110.562 72.4375C110.562 67.3818 108.554 62.5332 104.979 58.9583C101.404 55.3834 96.5557 53.375 91.5 53.375C86.4443 53.375 81.5957 55.3834 78.0208 58.9583C74.4459 62.5332 72.4375 67.3818 72.4375 72.4375C72.4375 77.4932 74.4459 82.3418 78.0208 85.9167C81.5957 89.4916 86.4443 91.5 91.5 91.5ZM91.5 101.031C72.3994 101.031 56.8444 113.841 56.8444 129.625C56.8444 130.693 57.6831 131.531 58.7506 131.531H124.249C125.317 131.531 126.156 130.693 126.156 129.625C126.156 113.841 110.601 101.031 91.5 101.031Z" fill="white"/>
</svg>
