<svg width="28" height="28" viewBox="0 0 28 28" fill="none" xmlns="http://www.w3.org/2000/svg">
<path d="M22.8023 4.56042H4.56046C3.30633 4.56042 2.29163 5.58653 2.29163 6.84066L2.28023 20.522C2.28023 21.7762 3.30633 22.8023 4.56046 22.8023H22.8023C24.0564 22.8023 25.0825 21.7762 25.0825 20.522V6.84066C25.0825 5.58653 24.0564 4.56042 22.8023 4.56042ZM22.3463 9.40592L14.2856 14.4452C13.9208 14.6732 13.442 14.6732 13.0771 14.4452L5.01651 9.40592C4.73148 9.2235 4.56046 8.91567 4.56046 8.58503C4.56046 7.82116 5.39274 7.36511 6.04261 7.76415L13.6814 12.5412L21.3202 7.76415C21.97 7.36511 22.8023 7.82116 22.8023 8.58503C22.8023 8.91567 22.6313 9.2235 22.3463 9.40592Z" fill="#9D9D9D"/>
</svg>
